<?xml version="1.0" encoding="utf-8"?>
<!-- Generator: Adobe Illustrator 23.0.2, SVG Export Plug-In . SVG Version: 6.00 Build 0)  -->
<svg version="1.1" id="Camada_1" xmlns="http://www.w3.org/2000/svg" xmlns:xlink="http://www.w3.org/1999/xlink" x="0px" y="0px"
	 viewBox="0 0 260 260" style="enable-background:new 0 0 260 260;" xml:space="preserve">
<style type="text/css">
	.st0{fill:#211915;}
</style>
<g>
	<g>
		<path class="st0" d="M54.2,189.8c0.9-9,6.3-15.7,10.3-20.3c10.7-11.9,26.7-15.7,30.9-27.6c4.9-13.9,4.8-24.3,13.2-36.2
			c11.1-15.7,35.9-17.6,49.1-3.5c13.2,14.1,6,29,14.1,46.7c5.2,11.4,15.4,13.2,23.7,17.8c17.6,9.7,20.5,54.3-6,66.2
			c-3.1,1.4-23.6,2-31.1,0.3c-12.3-2.9-24.4-6.8-29.9-6.8c-5.6,0-11,0.8-15.8,1.9c-8.7,2-25.5,6.2-36.1,1.8c-4.5-1.9-9-4.8-12.8-9.3
			C57.5,213,52.4,206.3,54.2,189.8z"/>
	</g>
	<g>
		<path class="st0" d="M70.3,105.8c-7.4-13.4-24.5-18.1-34.7-9.5c-7,5.9-11.7,19.5-9.9,30.5c2.2,13.3,11.3,21.7,16,24.2
			c12.5,6.8,25.8,0.3,27.9-1.7C81.6,137.6,76.9,117.6,70.3,105.8z"/>
	</g>
	<g>
		<path class="st0" d="M80.1,84.9C72.7,78.3,65.2,69,64.8,60.1c-0.4-8.7,1.9-18,9.1-24.4s19.9-9.2,28.8-4.5
			c12.4,6.6,13.6,20.9,14.8,33c0.7,7,2.4,25.1-13,28.3C97.5,93.9,88.4,92.3,80.1,84.9z"/>
	</g>
	<g>
		<path class="st0" d="M185.8,108.4c5.9-14.3,23.1-21.1,34.9-13.9c5.7,3.5,10.3,10.8,12.5,18.8c3.6,12.7-3.1,28.1-4.7,30.5
			c-2.1,3.2-4.5,6.3-7.7,8.4c-6.3,4.3-14.9,5-19.7,3.6c-7.1-2.1-11.8-5.9-14.9-10.6C179.2,134.3,181.5,118.7,185.8,108.4z"/>
	</g>
	<g>
		<path class="st0" d="M184,79.1c6.3-7.3,12.3-17.3,11.3-26.3c-1-8.7-4.7-17.6-12.8-23.3s-21.1-7-29.3-1.4
			c-11.3,7.8-10.7,22.1-9.9,34.2c0.4,7,1.3,24.6,17.7,26.9C170.3,90.5,176.9,87.3,184,79.1z"/>
	</g>
</g>
</svg>
